<svg xmlns="http://www.w3.org/2000/svg" xmlns:xlink="http://www.w3.org/1999/xlink" version="1.1" x="0px" y="0px" viewBox="0 0 32 40" enable-background="new 0 0 32 32" xml:space="preserve"><path d="M21.11,21.157h5.002v-6.867c-0.028-1.706-0.61-3.807-2.172-5.841c-1.539-2.014-4.315-3.72-7.939-3.687  C12.374,4.731,9.598,6.437,8.06,8.45c-1.562,2.034-2.145,4.136-2.174,5.842v6.866h5v-6.866c-0.027-0.377,0.303-1.789,1.099-2.748  c0.819-0.979,1.848-1.747,4.014-1.778c2.165,0.032,3.195,0.799,4.013,1.778c0.798,0.959,1.126,2.372,1.099,2.748V21.157  L21.11,21.157z M26.112,27.236c0,0,0-2.354,0-5.079H21.11c0,2.727,0,5.08,0,5.08l5.004-0.001H26.112z M5.886,27.237h5  c0,0,0-2.354,0-5.08h-5C5.886,24.884,5.886,27.237,5.886,27.237z"/><text x="0" y="47" fill="#000000" font-size="5px" font-weight="bold" font-family="'Helvetica Neue', Helvetica, Arial-Unicode, Arial, Sans-serif">Created by Dmitry Baranovskiy</text><text x="0" y="52" fill="#000000" font-size="5px" font-weight="bold" font-family="'Helvetica Neue', Helvetica, Arial-Unicode, Arial, Sans-serif">from the Noun Project</text></svg>