<svg xmlns:dc="http://purl.org/dc/elements/1.1/" xmlns:cc="http://creativecommons.org/ns#" xmlns:rdf="http://www.w3.org/1999/02/22-rdf-syntax-ns#" xmlns="http://www.w3.org/2000/svg" width="31mm" height="44mm" viewBox="0 0 31 44" version="1.1"><metadata><rdf:RDF><cc:Work><dc:format>image/svg+xml</dc:format><dc:type rdf:resource="http://purl.org/dc/dcmitype/StillImage"/><dc:title/><cc:license rdf:resource="https://www.gnu.org/licenses/agpl-3.0.en.html"/><dc:creator><cc:Agent><dc:title>Alexandre Flament</dc:title></cc:Agent></dc:creator></cc:Work></rdf:RDF></metadata><g fill="#000"><path d="M2.381 28.39H9.79v5.82H2.38z" stroke-width=".049"/><path d="M15.872 10.398c2.381 0 5.82.264 5.82 3.704v12.17c2.47.055 4.94-.001 7.41 0 .02-4.371 0-8.73 0-12.964-.022-3.73-1.158-6.05-3.705-7.937-2.844-2.203-6.144-2.335-9.656-2.347-3.512.012-6.812.144-9.656 2.347-2.547 1.887-3.683 4.207-3.704 7.937 0 4.234-.02 8.593 0 12.965 2.47-.002 4.94.054 7.409 0v-12.17c0-3.44 3.44-3.705 5.82-3.705" stroke="#000" stroke-width=".063" stroke-linecap="butt" stroke-linejoin="miter" stroke-opacity="1"/><path d="M21.696 28.39h7.408v5.82h-7.408z" stroke-width=".049"/></g></svg>
