<?xml version="1.0" encoding="UTF-8" standalone="no"?>
<!DOCTYPE svg PUBLIC "-//W3C//DTD SVG 1.1//EN"
 "http://www.w3.org/Graphics/SVG/1.1/DTD/svg11.dtd">
<!-- Generated by graphviz version 2.43.0 (0)
 -->
<!-- Title: G Pages: 1 -->
<svg width="603pt" height="415pt"
 viewBox="0.00 0.00 603.00 415.00" xmlns="http://www.w3.org/2000/svg" xmlns:xlink="http://www.w3.org/1999/xlink">
<g id="graph0" class="graph" transform="scale(1 1) rotate(0) translate(4 411)">
<title>G</title>
<polygon fill="white" stroke="transparent" points="-4,4 -4,-411 599,-411 599,4 -4,4"/>
<g id="clust1" class="cluster">
<title>cluster_searx</title>
<polygon fill="#fafafa" stroke="black" points="8,-8 8,-330 587,-330 587,-8 8,-8"/>
<text text-anchor="middle" x="297.5" y="-314.8" font-family="Sans" font-size="14.00">Searx instance</text>
</g>
<!-- browser -->
<g id="node1" class="node">
<title>browser</title>
<polygon fill="#ffffcc" stroke="black" points="74,-407 6.8,-389 74,-371 141.2,-389 74,-407"/>
<polyline fill="none" stroke="black" points="18.39,-392.1 18.39,-385.9 "/>
<polyline fill="none" stroke="black" points="62.41,-374.1 85.59,-374.1 "/>
<polyline fill="none" stroke="black" points="129.61,-385.9 129.61,-392.1 "/>
<polyline fill="none" stroke="black" points="85.59,-403.9 62.41,-403.9 "/>
<text text-anchor="middle" x="74" y="-385.3" font-family="Sans" font-size="14.00">Browser</text>
</g>
<!-- rp -->
<g id="node2" class="node">
<title>rp</title>
<g id="a_node2"><a xlink:href="https://searx.github.io/searx/utils/filtron.sh.html#public-reverse-proxy" xlink:title="Reverse Proxy">
<polygon fill="#ffffcc" stroke="black" points="131.5,-299 16.5,-299 16.5,-263 131.5,-263 131.5,-299"/>
<text text-anchor="middle" x="74" y="-277.3" font-family="Sans" font-size="14.00">Reverse Proxy</text>
</a>
</g>
</g>
<!-- browser&#45;&gt;rp -->
<g id="edge1" class="edge">
<title>browser&#45;&gt;rp</title>
<path fill="none" stroke="black" d="M74,-370.97C74,-354.38 74,-328.88 74,-309.43"/>
<polygon fill="black" stroke="black" points="77.5,-309.34 74,-299.34 70.5,-309.34 77.5,-309.34"/>
<text text-anchor="middle" x="96.5" y="-341.8" font-family="Sans" font-size="14.00">HTTPS</text>
</g>
<!-- filtron -->
<g id="node3" class="node">
<title>filtron</title>
<g id="a_node3"><a xlink:href="https://searx.github.io/searx/utils/filtron.sh.html" xlink:title="Filtron">
<polygon fill="#ffffcc" stroke="black" points="103.5,-212 44.5,-212 44.5,-176 103.5,-176 103.5,-212"/>
<text text-anchor="middle" x="74" y="-190.3" font-family="Sans" font-size="14.00">Filtron</text>
</a>
</g>
</g>
<!-- rp&#45;&gt;filtron -->
<g id="edge4" class="edge">
<title>rp&#45;&gt;filtron</title>
<path fill="none" stroke="black" d="M74,-262.8C74,-251.16 74,-235.55 74,-222.24"/>
<polygon fill="black" stroke="black" points="77.5,-222.18 74,-212.18 70.5,-222.18 77.5,-222.18"/>
<text text-anchor="middle" x="92" y="-233.8" font-family="Sans" font-size="14.00">HTTP</text>
</g>
<!-- morty -->
<g id="node4" class="node">
<title>morty</title>
<g id="a_node4"><a xlink:href="https://searx.github.io/searx/utils/morty.sh.html" xlink:title="Morty">
<polygon fill="#ffffcc" stroke="black" points="178,-212 122,-212 122,-176 178,-176 178,-212"/>
<text text-anchor="middle" x="150" y="-190.3" font-family="Sans" font-size="14.00">Morty</text>
</a>
</g>
</g>
<!-- rp&#45;&gt;morty -->
<g id="edge2" class="edge">
<title>rp&#45;&gt;morty</title>
<path fill="none" stroke="black" d="M95.6,-262.69C101.81,-257.29 108.41,-251.14 114,-245 120.76,-237.56 127.42,-228.84 133.12,-220.79"/>
<polygon fill="black" stroke="black" points="136.11,-222.62 138.91,-212.4 130.35,-218.65 136.11,-222.62"/>
<text text-anchor="middle" x="264.5" y="-233.8" font-family="Sans" font-size="14.00">optional: images and HTML pages proxy</text>
</g>
<!-- static -->
<g id="node5" class="node">
<title>static</title>
<g id="a_node5"><a xlink:href="url to configure static files" xlink:title="Static files">
<polygon fill="#ffffcc" stroke="black" points="579.5,-299 490.5,-299 490.5,-263 579.5,-263 579.5,-299"/>
<text text-anchor="middle" x="535" y="-277.3" font-family="Sans" font-size="14.00">Static files</text>
</a>
</g>
</g>
<!-- rp&#45;&gt;static -->
<g id="edge3" class="edge">
<title>rp&#45;&gt;static</title>
<path fill="none" stroke="black" d="M131.92,-281C221.59,-281 392.81,-281 480.41,-281"/>
<polygon fill="black" stroke="black" points="480.41,-284.5 490.41,-281 480.41,-277.5 480.41,-284.5"/>
<text text-anchor="middle" x="311" y="-287.8" font-family="Sans" font-size="14.00">optional: reverse proxy serves directly static files</text>
</g>
<!-- uwsgi -->
<g id="node6" class="node">
<title>uwsgi</title>
<g id="a_node6"><a xlink:href="https://searx.github.io/searx/utils/searx.sh.html" xlink:title="uwsgi">
<polygon fill="#ffffcc" stroke="black" points="184.5,-125 127.5,-125 127.5,-89 184.5,-89 184.5,-125"/>
<text text-anchor="middle" x="156" y="-103.3" font-family="Sans" font-size="14.00">uwsgi</text>
</a>
</g>
</g>
<!-- filtron&#45;&gt;uwsgi -->
<g id="edge5" class="edge">
<title>filtron&#45;&gt;uwsgi</title>
<path fill="none" stroke="black" d="M90.59,-175.8C102.6,-163.36 118.99,-146.36 132.36,-132.5"/>
<polygon fill="black" stroke="black" points="135.01,-134.8 139.43,-125.18 129.97,-129.94 135.01,-134.8"/>
<text text-anchor="middle" x="137" y="-146.8" font-family="Sans" font-size="14.00">HTTP</text>
</g>
<!-- searx1 -->
<g id="node7" class="node">
<title>searx1</title>
<polygon fill="#ffffcc" stroke="black" points="97.5,-52 16.5,-52 16.5,-16 97.5,-16 97.5,-52"/>
<text text-anchor="middle" x="57" y="-30.3" font-family="Sans" font-size="14.00">Searx #1</text>
</g>
<!-- uwsgi&#45;&gt;searx1 -->
<g id="edge6" class="edge">
<title>uwsgi&#45;&gt;searx1</title>
<path fill="none" stroke="black" d="M132.29,-88.99C119.4,-79.75 103.28,-68.19 89.27,-58.14"/>
<polygon fill="black" stroke="black" points="91.03,-55.1 80.86,-52.11 86.95,-60.79 91.03,-55.1"/>
</g>
<!-- searx2 -->
<g id="node8" class="node">
<title>searx2</title>
<polygon fill="#ffffcc" stroke="black" points="196.5,-52 115.5,-52 115.5,-16 196.5,-16 196.5,-52"/>
<text text-anchor="middle" x="156" y="-30.3" font-family="Sans" font-size="14.00">Searx #2</text>
</g>
<!-- uwsgi&#45;&gt;searx2 -->
<g id="edge7" class="edge">
<title>uwsgi&#45;&gt;searx2</title>
<path fill="none" stroke="black" d="M156,-88.81C156,-80.79 156,-71.05 156,-62.07"/>
<polygon fill="black" stroke="black" points="159.5,-62.03 156,-52.03 152.5,-62.03 159.5,-62.03"/>
</g>
<!-- searx3 -->
<g id="node9" class="node">
<title>searx3</title>
<polygon fill="#ffffcc" stroke="black" points="295.5,-52 214.5,-52 214.5,-16 295.5,-16 295.5,-52"/>
<text text-anchor="middle" x="255" y="-30.3" font-family="Sans" font-size="14.00">Searx #3</text>
</g>
<!-- uwsgi&#45;&gt;searx3 -->
<g id="edge8" class="edge">
<title>uwsgi&#45;&gt;searx3</title>
<path fill="none" stroke="black" d="M179.71,-88.99C192.6,-79.75 208.72,-68.19 222.73,-58.14"/>
<polygon fill="black" stroke="black" points="225.05,-60.79 231.14,-52.11 220.97,-55.1 225.05,-60.79"/>
</g>
<!-- searx4 -->
<g id="node10" class="node">
<title>searx4</title>
<polygon fill="#ffffcc" stroke="black" points="394.5,-52 313.5,-52 313.5,-16 394.5,-16 394.5,-52"/>
<text text-anchor="middle" x="354" y="-30.3" font-family="Sans" font-size="14.00">Searx #4</text>
</g>
<!-- uwsgi&#45;&gt;searx4 -->
<g id="edge9" class="edge">
<title>uwsgi&#45;&gt;searx4</title>
<path fill="none" stroke="black" d="M184.79,-95.68C215.9,-84.52 266.08,-66.53 303.72,-53.03"/>
<polygon fill="black" stroke="black" points="305.26,-56.19 313.5,-49.52 302.9,-49.61 305.26,-56.19"/>
</g>
</g>
</svg>
