<?xml version="1.0" encoding="UTF-8" standalone="no"?>
<!DOCTYPE svg PUBLIC "-//W3C//DTD SVG 1.1//EN"
 "http://www.w3.org/Graphics/SVG/1.1/DTD/svg11.dtd">
<!-- Generated by graphviz version 2.43.0 (0)
 -->
<!-- Title: G Pages: 1 -->
<svg width="618pt" height="415pt"
 viewBox="0.00 0.00 618.00 415.00" xmlns="http://www.w3.org/2000/svg" xmlns:xlink="http://www.w3.org/1999/xlink">
<g id="graph0" class="graph" transform="scale(1 1) rotate(0) translate(4 411)">
<title>G</title>
<polygon fill="white" stroke="transparent" points="-4,4 -4,-411 614,-411 614,4 -4,4"/>
<g id="clust1" class="cluster">
<title>cluster_searx</title>
<polygon fill="#fafafa" stroke="black" points="8,-8 8,-330 602,-330 602,-8 8,-8"/>
<text text-anchor="middle" x="305" y="-314.8" font-family="Sans" font-size="14.00">Searx instance</text>
</g>
<!-- browser -->
<g id="node1" class="node">
<title>browser</title>
<polygon fill="#ffffcc" stroke="black" points="75,-407 5.29,-389 75,-371 144.71,-389 75,-407"/>
<polyline fill="none" stroke="black" points="16.91,-392 16.91,-386 "/>
<polyline fill="none" stroke="black" points="63.38,-374 86.62,-374 "/>
<polyline fill="none" stroke="black" points="133.09,-386 133.09,-392 "/>
<polyline fill="none" stroke="black" points="86.62,-404 63.38,-404 "/>
<text text-anchor="middle" x="75" y="-385.3" font-family="Sans" font-size="14.00">Browser</text>
</g>
<!-- rp -->
<g id="node2" class="node">
<title>rp</title>
<g id="a_node2"><a xlink:href="url to configure reverse proxy" xlink:title="Reverse Proxy">
<polygon fill="#ffffcc" stroke="black" points="134,-299 16,-299 16,-263 134,-263 134,-299"/>
<text text-anchor="middle" x="75" y="-277.3" font-family="Sans" font-size="14.00">Reverse Proxy</text>
</a>
</g>
</g>
<!-- browser&#45;&gt;rp -->
<g id="edge1" class="edge">
<title>browser&#45;&gt;rp</title>
<path fill="none" stroke="black" d="M75,-370.97C75,-354.38 75,-328.88 75,-309.43"/>
<polygon fill="black" stroke="black" points="78.5,-309.34 75,-299.34 71.5,-309.34 78.5,-309.34"/>
<text text-anchor="middle" x="98" y="-341.8" font-family="Sans" font-size="14.00">HTTPS</text>
</g>
<!-- filtron -->
<g id="node3" class="node">
<title>filtron</title>
<g id="a_node3"><a xlink:href="https://github.com/asciimoo/filtron" xlink:title="Filtron">
<polygon fill="#ffffcc" stroke="black" points="105.5,-212 44.5,-212 44.5,-176 105.5,-176 105.5,-212"/>
<text text-anchor="middle" x="75" y="-190.3" font-family="Sans" font-size="14.00">Filtron</text>
</a>
</g>
</g>
<!-- rp&#45;&gt;filtron -->
<g id="edge4" class="edge">
<title>rp&#45;&gt;filtron</title>
<path fill="none" stroke="black" d="M75,-262.8C75,-251.16 75,-235.55 75,-222.24"/>
<polygon fill="black" stroke="black" points="78.5,-222.18 75,-212.18 71.5,-222.18 78.5,-222.18"/>
<text text-anchor="middle" x="93.5" y="-233.8" font-family="Sans" font-size="14.00">HTTP</text>
</g>
<!-- morty -->
<g id="node4" class="node">
<title>morty</title>
<g id="a_node4"><a xlink:href="https://github.com/asciimoo/morty" xlink:title="Morty">
<polygon fill="#ffffcc" stroke="black" points="180.5,-212 123.5,-212 123.5,-176 180.5,-176 180.5,-212"/>
<text text-anchor="middle" x="152" y="-190.3" font-family="Sans" font-size="14.00">Morty</text>
</a>
</g>
</g>
<!-- rp&#45;&gt;morty -->
<g id="edge2" class="edge">
<title>rp&#45;&gt;morty</title>
<path fill="none" stroke="black" d="M97.16,-262.75C103.53,-257.36 110.29,-251.2 116,-245 122.81,-237.6 129.47,-228.9 135.18,-220.84"/>
<polygon fill="black" stroke="black" points="138.17,-222.67 140.96,-212.45 132.4,-218.7 138.17,-222.67"/>
<text text-anchor="middle" x="271" y="-233.8" font-family="Sans" font-size="14.00">optional: images and HTML pages proxy</text>
</g>
<!-- static -->
<g id="node5" class="node">
<title>static</title>
<g id="a_node5"><a xlink:href="url to configure static files" xlink:title="Static files">
<polygon fill="#ffffcc" stroke="black" points="594,-299 504,-299 504,-263 594,-263 594,-299"/>
<text text-anchor="middle" x="549" y="-277.3" font-family="Sans" font-size="14.00">Static files</text>
</a>
</g>
</g>
<!-- rp&#45;&gt;static -->
<g id="edge3" class="edge">
<title>rp&#45;&gt;static</title>
<path fill="none" stroke="black" d="M134.07,-281C226.43,-281 403.75,-281 493.72,-281"/>
<polygon fill="black" stroke="black" points="493.72,-284.5 503.72,-281 493.72,-277.5 493.72,-284.5"/>
<text text-anchor="middle" x="319" y="-287.8" font-family="Sans" font-size="14.00">optional: reverse proxy serves directly static files</text>
</g>
<!-- uwsgi -->
<g id="node6" class="node">
<title>uwsgi</title>
<g id="a_node6"><a xlink:href="url to configure uwsgi" xlink:title="uwsgi">
<polygon fill="#ffffcc" stroke="black" points="188,-125 130,-125 130,-89 188,-89 188,-125"/>
<text text-anchor="middle" x="159" y="-103.3" font-family="Sans" font-size="14.00">uwsgi</text>
</a>
</g>
</g>
<!-- filtron&#45;&gt;uwsgi -->
<g id="edge5" class="edge">
<title>filtron&#45;&gt;uwsgi</title>
<path fill="none" stroke="black" d="M92,-175.8C104.3,-163.36 121.09,-146.36 134.78,-132.5"/>
<polygon fill="black" stroke="black" points="137.49,-134.75 142.03,-125.18 132.51,-129.83 137.49,-134.75"/>
<text text-anchor="middle" x="140.5" y="-146.8" font-family="Sans" font-size="14.00">HTTP</text>
</g>
<!-- searx1 -->
<g id="node7" class="node">
<title>searx1</title>
<polygon fill="#ffffcc" stroke="black" points="99.5,-52 16.5,-52 16.5,-16 99.5,-16 99.5,-52"/>
<text text-anchor="middle" x="58" y="-30.3" font-family="Sans" font-size="14.00">Searx #1</text>
</g>
<!-- uwsgi&#45;&gt;searx1 -->
<g id="edge6" class="edge">
<title>uwsgi&#45;&gt;searx1</title>
<path fill="none" stroke="black" d="M134.81,-88.99C121.66,-79.75 105.22,-68.19 90.92,-58.14"/>
<polygon fill="black" stroke="black" points="92.54,-55 82.34,-52.11 88.51,-60.73 92.54,-55"/>
</g>
<!-- searx2 -->
<g id="node8" class="node">
<title>searx2</title>
<polygon fill="#ffffcc" stroke="black" points="200.5,-52 117.5,-52 117.5,-16 200.5,-16 200.5,-52"/>
<text text-anchor="middle" x="159" y="-30.3" font-family="Sans" font-size="14.00">Searx #2</text>
</g>
<!-- uwsgi&#45;&gt;searx2 -->
<g id="edge7" class="edge">
<title>uwsgi&#45;&gt;searx2</title>
<path fill="none" stroke="black" d="M159,-88.81C159,-80.79 159,-71.05 159,-62.07"/>
<polygon fill="black" stroke="black" points="162.5,-62.03 159,-52.03 155.5,-62.03 162.5,-62.03"/>
</g>
<!-- searx3 -->
<g id="node9" class="node">
<title>searx3</title>
<polygon fill="#ffffcc" stroke="black" points="301.5,-52 218.5,-52 218.5,-16 301.5,-16 301.5,-52"/>
<text text-anchor="middle" x="260" y="-30.3" font-family="Sans" font-size="14.00">Searx #3</text>
</g>
<!-- uwsgi&#45;&gt;searx3 -->
<g id="edge8" class="edge">
<title>uwsgi&#45;&gt;searx3</title>
<path fill="none" stroke="black" d="M183.19,-88.99C196.34,-79.75 212.78,-68.19 227.08,-58.14"/>
<polygon fill="black" stroke="black" points="229.49,-60.73 235.66,-52.11 225.46,-55 229.49,-60.73"/>
</g>
<!-- searx4 -->
<g id="node10" class="node">
<title>searx4</title>
<polygon fill="#ffffcc" stroke="black" points="402.5,-52 319.5,-52 319.5,-16 402.5,-16 402.5,-52"/>
<text text-anchor="middle" x="361" y="-30.3" font-family="Sans" font-size="14.00">Searx #4</text>
</g>
<!-- uwsgi&#45;&gt;searx4 -->
<g id="edge9" class="edge">
<title>uwsgi&#45;&gt;searx4</title>
<path fill="none" stroke="black" d="M188.37,-95.68C220.15,-84.51 271.41,-66.49 309.83,-52.98"/>
<polygon fill="black" stroke="black" points="311.03,-56.27 319.31,-49.66 308.71,-49.67 311.03,-56.27"/>
</g>
</g>
</svg>
