<?xml version="1.0" encoding="UTF-8" standalone="no"?>
<!DOCTYPE svg PUBLIC "-//W3C//DTD SVG 1.1//EN"
 "http://www.w3.org/Graphics/SVG/1.1/DTD/svg11.dtd">
<!-- Generated by graphviz version 2.40.1 (20161225.0304)
 -->
<!-- Title: G Pages: 1 -->
<svg width="618pt" height="529pt"
 viewBox="0.00 0.00 618.00 529.00" xmlns="http://www.w3.org/2000/svg" xmlns:xlink="http://www.w3.org/1999/xlink">
<g id="graph0" class="graph" transform="scale(1 1) rotate(0) translate(4 525)">
<title>G</title>
<polygon fill="#ffffff" stroke="transparent" points="-4,4 -4,-525 614,-525 614,4 -4,4"/>
<g id="clust1" class="cluster">
<title>cluster_searx</title>
<polygon fill="#fafafa" stroke="#000000" points="8,-8 8,-444 602,-444 602,-8 8,-8"/>
<text text-anchor="middle" x="305" y="-428.8" font-family="Sans" font-size="14.00" fill="#000000">Searx instance</text>
</g>
<!-- browser -->
<g id="node1" class="node">
<title>browser</title>
<polygon fill="#ffffcc" stroke="#000000" points="75,-521 5.2878,-503 75,-485 144.7122,-503 75,-521"/>
<polyline fill="none" stroke="#000000" points="16.9067,-506.0001 16.9067,-499.9999 "/>
<polyline fill="none" stroke="#000000" points="63.3811,-488.0001 86.6189,-488.0001 "/>
<polyline fill="none" stroke="#000000" points="133.0933,-499.9999 133.0933,-506.0001 "/>
<polyline fill="none" stroke="#000000" points="86.6189,-517.9999 63.3811,-517.9999 "/>
<text text-anchor="middle" x="75" y="-499.3" font-family="Sans" font-size="14.00" fill="#000000">Browser</text>
</g>
<!-- rp -->
<g id="node2" class="node">
<title>rp</title>
<g id="a_node2"><a xlink:href="https://searx.github.io/searx/utils/filtron.sh.html#public-reverse-proxy" xlink:title="Reverse Proxy">
<polygon fill="#ffffcc" stroke="#000000" points="134,-413 16,-413 16,-377 134,-377 134,-413"/>
<text text-anchor="middle" x="75" y="-391.3" font-family="Sans" font-size="14.00" fill="#000000">Reverse Proxy</text>
</a>
</g>
</g>
<!-- browser&#45;&gt;rp -->
<g id="edge1" class="edge">
<title>browser&#45;&gt;rp</title>
<path fill="none" stroke="#000000" d="M75,-484.6793C75,-467.821 75,-442.5651 75,-423.147"/>
<polygon fill="#000000" stroke="#000000" points="78.5001,-423.0501 75,-413.0502 71.5001,-423.0502 78.5001,-423.0501"/>
<text text-anchor="middle" x="98" y="-455.8" font-family="Sans" font-size="14.00" fill="#000000">HTTPS</text>
</g>
<!-- filtron -->
<g id="node3" class="node">
<title>filtron</title>
<g id="a_node3"><a xlink:href="https://searx.github.io/searx/utils/filtron.sh.html" xlink:title="Filtron">
<polygon fill="#ffffcc" stroke="#000000" points="105.5,-288 44.5,-288 44.5,-252 105.5,-252 105.5,-288"/>
<text text-anchor="middle" x="75" y="-266.3" font-family="Sans" font-size="14.00" fill="#000000">Filtron</text>
</a>
</g>
</g>
<!-- rp&#45;&gt;filtron -->
<g id="edge4" class="edge">
<title>rp&#45;&gt;filtron</title>
<path fill="none" stroke="#000000" d="M75,-376.8239C75,-356.2723 75,-322.5472 75,-298.4893"/>
<polygon fill="#000000" stroke="#000000" points="78.5001,-298.198 75,-288.198 71.5001,-298.198 78.5001,-298.198"/>
<text text-anchor="middle" x="93.5" y="-328.8" font-family="Sans" font-size="14.00" fill="#000000">HTTP</text>
</g>
<!-- morty -->
<g id="node4" class="node">
<title>morty</title>
<g id="a_node4"><a xlink:href="https://searx.github.io/searx/utils/morty.sh.html" xlink:title="Morty">
<polygon fill="#ffffcc" stroke="#000000" points="180.5,-288 123.5,-288 123.5,-252 180.5,-252 180.5,-288"/>
<text text-anchor="middle" x="152" y="-266.3" font-family="Sans" font-size="14.00" fill="#000000">Morty</text>
</a>
</g>
</g>
<!-- rp&#45;&gt;morty -->
<g id="edge2" class="edge">
<title>rp&#45;&gt;morty</title>
<path fill="none" stroke="#000000" d="M89.8355,-376.705C98.0006,-366.2543 108.0569,-352.7317 116,-340 124.4983,-326.3785 132.7784,-310.5167 139.2508,-297.3397"/>
<polygon fill="#000000" stroke="#000000" points="142.4243,-298.8167 143.6215,-288.2897 136.1209,-295.7724 142.4243,-298.8167"/>
<text text-anchor="middle" x="268" y="-328.8" font-family="Sans" font-size="14.00" fill="#000000">optional: images and HTML pages proxy</text>
</g>
<!-- static -->
<g id="node5" class="node">
<title>static</title>
<g id="a_node5"><a xlink:href="url to configure static files" xlink:title="Static files">
<polygon fill="#ffffcc" stroke="#000000" points="594,-413 504,-413 504,-377 594,-377 594,-413"/>
<text text-anchor="middle" x="549" y="-391.3" font-family="Sans" font-size="14.00" fill="#000000">Static files</text>
</a>
</g>
</g>
<!-- rp&#45;&gt;static -->
<g id="edge3" class="edge">
<title>rp&#45;&gt;static</title>
<path fill="none" stroke="#000000" d="M134.074,-395C226.433,-395 403.7479,-395 493.718,-395"/>
<polygon fill="#000000" stroke="#000000" points="493.7212,-398.5001 503.7212,-395 493.7211,-391.5001 493.7212,-398.5001"/>
<text text-anchor="middle" x="319" y="-401.8" font-family="Sans" font-size="14.00" fill="#000000">optional: reverse proxy serves directly static files</text>
</g>
<!-- uwsgi -->
<g id="node6" class="node">
<title>uwsgi</title>
<g id="a_node6"><a xlink:href="https://searx.github.io/searx/utils/searx.sh.html" xlink:title="uwsgi">
<polygon fill="#ffffcc" stroke="#000000" points="188,-163 130,-163 130,-127 188,-127 188,-163"/>
<text text-anchor="middle" x="159" y="-141.3" font-family="Sans" font-size="14.00" fill="#000000">uwsgi</text>
</a>
</g>
</g>
<!-- filtron&#45;&gt;uwsgi -->
<g id="edge5" class="edge">
<title>filtron&#45;&gt;uwsgi</title>
<path fill="none" stroke="#000000" d="M87.2143,-251.8239C101.3983,-230.7169 124.9198,-195.7146 141.1515,-171.5603"/>
<polygon fill="#000000" stroke="#000000" points="144.0983,-173.4502 146.7709,-163.198 138.2883,-169.5459 144.0983,-173.4502"/>
<text text-anchor="middle" x="139.5" y="-203.8" font-family="Sans" font-size="14.00" fill="#000000">HTTP</text>
</g>
<!-- searx1 -->
<g id="node7" class="node">
<title>searx1</title>
<polygon fill="#ffffcc" stroke="#000000" points="99.5,-52 16.5,-52 16.5,-16 99.5,-16 99.5,-52"/>
<text text-anchor="middle" x="58" y="-30.3" font-family="Sans" font-size="14.00" fill="#000000">Searx #1</text>
</g>
<!-- uwsgi&#45;&gt;searx1 -->
<g id="edge6" class="edge">
<title>uwsgi&#45;&gt;searx1</title>
<path fill="none" stroke="#000000" d="M142.3219,-126.6706C125.7281,-108.4339 100.1175,-80.2876 81.4738,-59.7979"/>
<polygon fill="#000000" stroke="#000000" points="84.0217,-57.3975 74.7029,-52.3566 78.8442,-62.1086 84.0217,-57.3975"/>
</g>
<!-- searx2 -->
<g id="node8" class="node">
<title>searx2</title>
<polygon fill="#ffffcc" stroke="#000000" points="200.5,-52 117.5,-52 117.5,-16 200.5,-16 200.5,-52"/>
<text text-anchor="middle" x="159" y="-30.3" font-family="Sans" font-size="14.00" fill="#000000">Searx #2</text>
</g>
<!-- uwsgi&#45;&gt;searx2 -->
<g id="edge7" class="edge">
<title>uwsgi&#45;&gt;searx2</title>
<path fill="none" stroke="#000000" d="M159,-126.6706C159,-109.2373 159,-82.7482 159,-62.5489"/>
<polygon fill="#000000" stroke="#000000" points="162.5001,-62.3566 159,-52.3566 155.5001,-62.3567 162.5001,-62.3566"/>
</g>
<!-- searx3 -->
<g id="node9" class="node">
<title>searx3</title>
<polygon fill="#ffffcc" stroke="#000000" points="301.5,-52 218.5,-52 218.5,-16 301.5,-16 301.5,-52"/>
<text text-anchor="middle" x="260" y="-30.3" font-family="Sans" font-size="14.00" fill="#000000">Searx #3</text>
</g>
<!-- uwsgi&#45;&gt;searx3 -->
<g id="edge8" class="edge">
<title>uwsgi&#45;&gt;searx3</title>
<path fill="none" stroke="#000000" d="M175.6781,-126.6706C192.2719,-108.4339 217.8825,-80.2876 236.5262,-59.7979"/>
<polygon fill="#000000" stroke="#000000" points="239.1558,-62.1086 243.2971,-52.3566 233.9783,-57.3975 239.1558,-62.1086"/>
</g>
<!-- searx4 -->
<g id="node10" class="node">
<title>searx4</title>
<polygon fill="#ffffcc" stroke="#000000" points="402.5,-52 319.5,-52 319.5,-16 402.5,-16 402.5,-52"/>
<text text-anchor="middle" x="361" y="-30.3" font-family="Sans" font-size="14.00" fill="#000000">Searx #4</text>
</g>
<!-- uwsgi&#45;&gt;searx4 -->
<g id="edge9" class="edge">
<title>uwsgi&#45;&gt;searx4</title>
<path fill="none" stroke="#000000" d="M188.3725,-128.8596C222.8149,-109.9334 280.1532,-78.4257 319.2181,-56.9594"/>
<polygon fill="#000000" stroke="#000000" points="321.1614,-59.8852 328.2399,-52.0018 317.7903,-53.7504 321.1614,-59.8852"/>
</g>
</g>
</svg>
