<svg xmlns="http://www.w3.org/2000/svg" xmlns:svg="http://www.w3.org/2000/svg" xmlns:xlink="http://www.w3.org/1999/xlink" id="svg2" width="744.094" height="1052.362" version="1.1"><defs id="defs4"><linearGradient id="linearGradient3857"><stop style="stop-color:#fff;stop-opacity:1" id="stop3859" offset="0"/><stop style="stop-color:#fff;stop-opacity:0" id="stop3861" offset="1"/></linearGradient><linearGradient id="linearGradient3790"><stop style="stop-color:#a9a9a9;stop-opacity:1" id="stop3792" offset="0"/><stop style="stop-color:#000;stop-opacity:1" id="stop3794" offset="1"/></linearGradient><radialGradient id="radialGradient3798" cx="294.459" cy="208.38" r="107.581" fx="294.459" fy="208.38" gradientUnits="userSpaceOnUse" xlink:href="#linearGradient3790"/><linearGradient id="linearGradient3865" x1="120.689" x2="120.689" y1="239.618" y2="602.175" gradientUnits="userSpaceOnUse" xlink:href="#linearGradient3857"/><linearGradient id="linearGradient3912" x1="186.744" x2="255.844" y1="354.424" y2="254.36" gradientTransform="matrix(1.2227304,0,0,0.89945099,-289.31433,113.40259)" gradientUnits="userSpaceOnUse" xlink:href="#linearGradient3790"/><filter id="filter4024" width="1.26" height="1.294" x="-.13" y="-.147"><feGaussianBlur id="feGaussianBlur4026" stdDeviation="6.476"/></filter><filter id="filter3983" width="3.122" height="1.62" x="-1.061" y="-.31"><feGaussianBlur id="feGaussianBlur3985" stdDeviation="9.393"/></filter></defs><metadata id="metadata7"/><g id="layer1"><path style="fill:#000;fill-opacity:1;fill-rule:nonzero;stroke:none" id="path3814-0-7" d="m 70.523181,34.870671 c -7.11959,15.242893 -10.17798,31.779192 -8.22563,48.814566 5.01677,43.774133 41.675309,79.324503 91.536109,95.162893 -6.62576,-22.40752 -5.34093,-44.9362 2.6395,-65.84431 C 108.73618,98.821131 74.828141,70.195435 70.523181,34.870671 z"/><path style="fill:#000;fill-opacity:1;fill-rule:nonzero;stroke:none" id="path3814-0" d="m 303.77876,36.21406 c 7.11959,15.242893 10.17798,31.779192 8.22563,48.814566 -5.01677,43.774134 -41.67531,79.324504 -91.53611,95.162894 6.62576,-22.40752 5.34093,-44.9362 -2.6395,-65.84431 47.73698,-14.18269 81.64502,-42.808386 85.94998,-78.13315 z"/><path style="fill:#000;fill-opacity:1;fill-rule:nonzero;stroke:none" id="rect3804" d="m -5.0905523,259.06055 18.4167573,0 c 6.220455,0 11.228257,16.68196 11.228257,37.40349 l 0,172.83701 c 0,20.72153 -5.007802,37.40349 -11.228257,37.40349 l -18.4167573,0 c -6.2204547,0 -11.2282577,-16.68196 -11.2282577,-37.40349 l 0,-172.83701 c 0,-20.72153 5.007803,-37.40349 11.2282577,-37.40349 z" transform="matrix(0.6556593,-0.75505688,0.75505688,0.6556593,0,0)"/><path style="fill:url(#radialGradient3798);fill-opacity:1;fill-rule:nonzero;stroke:none" id="path2987" d="m 402.04073,208.37973 a 107.58125,107.58125 0 1 1 -215.16251,0 107.58125,107.58125 0 1 1 215.16251,0 z" transform="translate(-107.07617,-60.609153)"/><path style="fill:url(#linearGradient3865);fill-opacity:1;fill-rule:nonzero;stroke:none" id="path3757" d="m 233.34524,299.29346 a 101.52033,101.52033 0 1 1 -203.040667,0 101.52033,101.52033 0 1 1 203.040667,0 z" transform="matrix(0.76865672,0,0,0.76865672,85.80266,-82.535889)"/><path style="fill:#1a1a1a;fill-opacity:1;fill-rule:nonzero;stroke:none" id="path3800" d="m 210.6168,156.35687 a 27.274118,27.274118 0 1 1 -54.54824,0 27.274118,27.274118 0 1 1 54.54824,0 z" transform="translate(5,-7.1428572)"/><path style="fill:#fff;fill-opacity:1;fill-rule:nonzero;stroke:none" id="path3802" d="m 203.54574,203.32896 a 5.5558391,5.5558391 0 1 1 -11.11168,0 5.5558391,5.5558391 0 1 1 11.11168,0 z" transform="translate(1.4847712,-63.564549)"/><rect style="fill:#fff;fill-opacity:.82211531000000004;fill-rule:nonzero;stroke:none;filter:url(#filter4024)" id="rect3916" width="2.239" height="159.438" x="19.526" y="337.84" rx="2.867" ry="9.001" transform="matrix(0.74466525,-0.84318084,0.84318084,0.74466525,-35.543204,-26.349917)"/></g></svg>